<svg width="141" height="13" viewBox="0 0 141 13" fill="none" xmlns="http://www.w3.org/2000/svg">
<path d="M5.8608 12.1705C8.97692 12.1705 11.4964 9.65092 11.4858 6.54545C11.4751 3.43999 8.97692 0.920454 5.8608 0.920454C2.76598 0.920454 0.246449 3.43999 0.235796 6.54545C0.225142 9.65092 2.76598 12.1705 5.8608 12.1705ZM5.8608 10.9347C3.43714 10.9347 1.46094 8.95845 1.47159 6.55078C1.48224 4.12713 3.4478 2.15625 5.8608 2.15625C8.28445 2.15625 10.2393 4.11648 10.25 6.55078C10.2607 8.9691 8.2951 10.9347 5.8608 10.9347ZM2.75 6.54545C2.75 8.29261 4.1669 9.70952 5.91406 9.70952C7.42685 9.70952 8.58807 8.64418 8.79048 7.22727H7.50142C7.35227 7.95703 6.73438 8.47372 5.91406 8.47372C4.84872 8.47372 3.9858 7.6108 3.9858 6.54545C3.9858 5.48011 4.84872 4.61719 5.91406 4.61719C6.73438 4.61719 7.46413 5.13388 7.60795 5.86364H8.89702C8.6946 4.44673 7.42685 3.38139 5.91406 3.38139C4.1669 3.38139 2.75 4.7983 2.75 6.54545ZM19.5864 1.09091H18.2654V12H19.5864V1.09091ZM23.3217 7.07812C23.3217 5.65057 24.206 4.84091 25.4098 4.84091C26.5763 4.84091 27.2848 5.60263 27.2848 6.88636V12H28.5419V6.80114C28.5419 4.71307 27.4286 3.71165 25.772 3.71165C24.5362 3.71165 23.7692 4.26562 23.3857 5.09659H23.2791V3.81818H22.0646V12H23.3217V7.07812ZM34.4825 3.81818H32.6501V2.98722C32.6501 2.17756 32.991 1.75142 33.822 1.75142C34.1842 1.75142 34.3973 1.83665 34.5251 1.87926L34.8873 0.792613C34.6956 0.707386 34.3121 0.579545 33.6942 0.579545C32.5223 0.579545 31.393 1.28267 31.393 2.68892V3.81818H30.072V4.88352H31.393V12H32.6501V4.88352H34.4825V3.81818ZM39.3378 12.1705C40.9997 12.1705 42.2142 11.3395 42.5977 10.1037L41.3833 9.76278C41.0637 10.6151 40.3232 11.0412 39.3378 11.0412C37.8623 11.0412 36.8449 10.0877 36.7863 8.33523H42.7256V7.80256C42.7256 4.75568 40.9145 3.71165 39.21 3.71165C36.9941 3.71165 35.5239 5.45881 35.5239 7.97301C35.5239 10.4872 36.9727 12.1705 39.3378 12.1705ZM36.7863 7.24858C36.8715 5.9755 37.7718 4.84091 39.21 4.84091C40.5736 4.84091 41.4472 5.86364 41.4472 7.24858H36.7863ZM44.6379 12H45.895V6.82244C45.895 5.71449 46.7686 4.90483 47.9617 4.90483C48.2973 4.90483 48.6436 4.96875 48.7288 4.99006V3.71165C48.585 3.70099 48.2547 3.69034 48.0683 3.69034C47.0882 3.69034 46.2359 4.24432 45.9376 5.05398H45.8524V3.81818H44.6379V12ZM50.2189 12H51.476V6.88636C51.476 5.68785 52.3496 4.84091 53.3297 4.84091C54.2832 4.84091 54.949 5.46413 54.949 6.39631V12H56.2275V6.6733C56.2275 5.61861 56.888 4.84091 58.0385 4.84091C58.9334 4.84091 59.7005 5.31499 59.7005 6.52415V12H60.9576V6.52415C60.9576 4.60121 59.9242 3.71165 58.4647 3.71165C57.2928 3.71165 56.4352 4.24964 56.0144 5.09659H55.9292C55.5243 4.22301 54.8105 3.71165 53.7346 3.71165C52.6692 3.71165 51.8809 4.22301 51.54 5.09659H51.4334V3.81818H50.2189V12ZM66.6864 12.1705C68.3484 12.1705 69.5629 11.3395 69.9464 10.1037L68.7319 9.76278C68.4123 10.6151 67.6719 11.0412 66.6864 11.0412C65.2109 11.0412 64.1935 10.0877 64.1349 8.33523H70.0742V7.80256C70.0742 4.75568 68.2631 3.71165 66.5586 3.71165C64.3427 3.71165 62.8725 5.45881 62.8725 7.97301C62.8725 10.4872 64.3214 12.1705 66.6864 12.1705ZM64.1349 7.24858C64.2202 5.9755 65.1204 4.84091 66.5586 4.84091C67.9222 4.84091 68.7958 5.86364 68.7958 7.24858H64.1349ZM75.076 12.1705C76.6527 12.1705 77.1854 11.1903 77.4624 10.7429H77.6115V12H78.826V1.09091H77.5689V5.1179H77.4624C77.1854 4.69176 76.6953 3.71165 75.0973 3.71165C73.0305 3.71165 71.603 5.35227 71.603 7.9304C71.603 10.5298 73.0305 12.1705 75.076 12.1705ZM75.2464 11.0412C73.6697 11.0412 72.8601 9.65625 72.8601 7.90909C72.8601 6.18324 73.6484 4.84091 75.2464 4.84091C76.7805 4.84091 77.5902 6.0767 77.5902 7.90909C77.5902 9.76278 76.7592 11.0412 75.2464 11.0412ZM81.3029 12H82.56V3.81818H81.3029V12ZM81.9421 2.45455C82.4322 2.45455 82.837 2.07102 82.837 1.60227C82.837 1.13352 82.4322 0.75 81.9421 0.75C81.4521 0.75 81.0472 1.13352 81.0472 1.60227C81.0472 2.07102 81.4521 2.45455 81.9421 2.45455ZM88.1863 12.1705C89.9974 12.1705 91.1906 11.0625 91.4037 9.61364H90.1466C89.9122 10.5085 89.1665 11.0412 88.1863 11.0412C86.6949 11.0412 85.7361 9.8054 85.7361 7.90909C85.7361 6.0554 86.7162 4.84091 88.1863 4.84091C89.2943 4.84091 89.9548 5.52273 90.1466 6.26847H91.4037C91.1906 4.73438 89.8909 3.71165 88.165 3.71165C85.9491 3.71165 84.479 5.45881 84.479 7.9517C84.479 10.402 85.8852 12.1705 88.1863 12.1705ZM95.6491 12.1918C97.0766 12.1918 97.8224 11.4247 98.078 10.892H98.142V12H99.3991V6.60938C99.3991 4.00994 97.4175 3.71165 96.3735 3.71165C95.1377 3.71165 93.7314 4.13778 93.0922 5.62926L94.2854 6.0554C94.5624 5.45881 95.2176 4.8196 96.4161 4.8196C97.572 4.8196 98.142 5.43217 98.142 6.48153V6.52415C98.142 7.13139 97.5241 7.07812 96.0326 7.26989C94.5145 7.46697 92.8579 7.80256 92.8579 9.67756C92.8579 11.2756 94.0937 12.1918 95.6491 12.1918ZM95.8408 11.0625C94.8394 11.0625 94.115 10.6151 94.115 9.74148C94.115 8.78267 94.9885 8.48438 95.9687 8.35653C96.5013 8.29261 97.9289 8.14347 98.142 7.88778V9.03835C98.142 10.0611 97.3323 11.0625 95.8408 11.0625ZM105.891 12H112.773V10.8281H107.702V10.7429L110.152 8.12216C112.027 6.11399 112.581 5.17649 112.581 3.96733C112.581 2.28409 111.218 0.941761 109.3 0.941761C107.388 0.941761 105.934 2.24148 105.934 4.15909H107.191C107.191 2.91797 107.995 2.09233 109.257 2.09233C110.44 2.09233 111.346 2.81676 111.346 3.96733C111.346 4.97408 110.754 5.71982 109.492 7.09943L105.891 11.0412V12ZM118.531 12.1491C120.939 12.1491 122.324 10.109 122.324 6.54545C122.324 3.00852 120.918 0.941761 118.531 0.941761C116.145 0.941761 114.739 3.00852 114.739 6.54545C114.739 10.109 116.124 12.1491 118.531 12.1491ZM118.531 10.9773C116.944 10.9773 116.017 9.38459 116.017 6.54545C116.017 3.71165 116.955 2.09233 118.531 2.09233C120.108 2.09233 121.045 3.71165 121.045 6.54545C121.045 9.38459 120.119 10.9773 118.531 10.9773ZM124.348 12H131.23V10.8281H126.159V10.7429L128.609 8.12216C130.484 6.11399 131.038 5.17649 131.038 3.96733C131.038 2.28409 129.675 0.941761 127.757 0.941761C125.845 0.941761 124.391 2.24148 124.391 4.15909H125.648C125.648 2.91797 126.452 2.09233 127.714 2.09233C128.897 2.09233 129.803 2.81676 129.803 3.96733C129.803 4.97408 129.211 5.71982 127.949 7.09943L124.348 11.0412V12ZM136.988 12.1491C139.396 12.1491 140.781 10.109 140.781 6.54545C140.781 3.00852 139.375 0.941761 136.988 0.941761C134.602 0.941761 133.196 3.00852 133.196 6.54545C133.196 10.109 134.581 12.1491 136.988 12.1491ZM136.988 10.9773C135.401 10.9773 134.474 9.38459 134.474 6.54545C134.474 3.71165 135.412 2.09233 136.988 2.09233C138.565 2.09233 139.502 3.71165 139.502 6.54545C139.502 9.38459 138.576 10.9773 136.988 10.9773Z" fill="#7B8BA5"/>
</svg>
